<svg width="971" height="690" viewBox="0 0 971 690" fill="none" xmlns="http://www.w3.org/2000/svg">
<path d="M-50.4729 455.182C-0.0448883 233.122 53.4796 117.226 277.309 228.256C501.139 339.286 497.158 221.621 504.235 140.671C511.313 59.7206 549.355 -52.6366 690.907 4.42668C832.46 61.49 854.135 12.8317 874.483 -20.7869C894.831 -54.4056 927.123 -71.215 953.664 -54.4056" stroke="url(#paint0_linear_2463_3007)"/>
<path d="M1.28184 867.454C-8.44978 656.895 120.717 495.437 344.547 606.467C568.376 717.497 611.726 428.642 618.804 347.691C625.882 266.741 584.743 46.4505 726.295 103.514C867.848 160.577 847.499 110.149 867.848 76.5307C888.196 42.912 943.932 -20.7854 970.473 -3.97603" stroke="url(#paint1_linear_2463_3007)"/>
<path d="M-48.0327 474.619C-0.469448 253.106 56.657 135.041 280.487 246.071C504.316 357.101 502.589 231.284 509.667 150.334C516.744 69.3833 551.016 -48.1135 692.568 8.94974C834.12 66.013 853.795 17.2705 874.143 -16.3481C894.491 -49.9668 927.899 -69.0089 954.44 -52.1996" stroke="url(#paint2_linear_2463_3007)"/>
<path d="M-45.5928 494.092C-0.894254 273.128 59.8342 152.892 283.664 263.923C507.493 374.953 508.02 240.984 515.098 160.033C522.175 79.0832 552.676 -43.5533 694.229 13.51C835.781 70.5732 853.454 21.7465 873.802 -11.8722C894.15 -45.4908 928.675 -66.7657 955.216 -49.9564" stroke="url(#paint3_linear_2463_3007)"/>
<path d="M-43.1528 513.598C-1.31905 293.18 63.0115 170.776 286.841 281.806C510.671 392.836 513.451 250.715 520.529 169.765C527.606 88.8144 554.337 -38.9618 695.889 18.1014C837.442 75.1647 853.113 26.2537 873.462 -7.36495C893.81 -40.9836 929.451 -64.4913 955.992 -47.6819" stroke="url(#paint4_linear_2463_3007)"/>
<path d="M-40.7126 533.13C-1.74361 313.261 66.1889 188.686 290.019 299.716C513.848 410.747 518.882 260.474 525.96 179.524C533.038 98.5733 555.998 -34.3426 697.55 22.7207C839.102 79.784 852.773 30.7887 873.121 -2.82998C893.47 -36.4487 930.227 -62.1891 956.768 -45.3797" stroke="url(#paint5_linear_2463_3007)"/>
<path d="M-38.2725 552.686C-2.16817 333.364 69.3664 206.62 293.196 317.65C517.026 428.68 524.314 270.255 531.391 189.305C538.469 108.355 557.659 -29.7008 699.211 27.3625C840.763 84.4258 852.433 35.3463 872.781 1.72761C893.129 -31.8911 931.003 -59.8642 957.544 -43.0549" stroke="url(#paint6_linear_2463_3007)"/>
<path d="M-35.8325 572.265C-2.59297 353.491 72.5436 224.577 296.373 335.607C520.203 446.637 529.745 280.061 536.822 199.111C543.9 118.16 559.319 -25.035 700.871 32.0283C842.424 89.0916 852.092 39.9278 872.44 6.3091C892.789 -27.3096 931.779 -57.5155 958.32 -40.7062" stroke="url(#paint7_linear_2463_3007)"/>
<path d="M-33.3926 591.864C-3.01777 373.637 75.7208 242.554 299.55 353.584C523.38 464.614 535.176 289.886 542.254 208.935C549.331 127.985 560.98 -20.3498 702.532 36.7134C844.084 93.7767 851.752 44.5287 872.1 10.91C892.448 -22.7087 932.555 -55.1474 959.096 -38.338" stroke="url(#paint8_linear_2463_3007)"/>
<path d="M-30.9524 611.478C-3.44233 393.799 78.8982 260.546 302.728 371.576C526.557 482.606 540.607 299.726 547.685 218.776C554.762 137.825 562.641 -15.6493 704.193 41.414C845.745 98.4773 851.411 49.145 871.76 15.5263C892.108 -18.0924 933.331 -52.7638 959.872 -35.9545" stroke="url(#paint9_linear_2463_3007)"/>
<path d="M-28.5125 631.111C-3.86714 413.98 82.0754 278.558 305.905 389.588C529.735 500.618 546.038 309.585 553.116 228.635C560.193 147.685 564.301 -10.9293 705.853 46.1339C847.406 103.197 851.071 53.7806 871.419 20.162C891.767 -13.4567 934.106 -50.3609 960.647 -33.5516" stroke="url(#paint10_linear_2463_3007)"/>
<path d="M-26.0723 650.755C-4.2917 434.171 85.2529 296.579 309.082 407.609C532.912 518.639 551.47 319.455 558.547 238.505C565.625 157.555 565.962 -6.1995 707.514 50.8638C849.067 107.927 850.731 58.4262 871.079 24.8076C891.427 -8.81111 934.883 -47.9481 961.424 -31.1388" stroke="url(#paint11_linear_2463_3007)"/>
<path d="M-23.6318 670.411C-4.71601 454.375 88.4306 314.613 312.26 425.643C536.09 536.673 556.901 329.337 563.979 248.387C571.056 167.437 567.623 -1.4571 709.175 55.6062C850.728 112.669 850.39 63.0844 870.739 29.4657C891.087 -4.15297 935.659 -45.5227 962.2 -28.7134" stroke="url(#paint12_linear_2463_3007)"/>
<path d="M-21.1919 690.08C-5.14081 474.592 91.6078 332.66 315.437 443.69C539.267 554.72 562.332 339.232 569.41 258.282C576.487 177.332 569.283 3.29839 710.836 60.3617C852.388 117.425 850.05 67.7556 870.398 34.1369C890.746 0.518265 936.435 -43.0843 962.976 -26.2749" stroke="url(#paint13_linear_2463_3007)"/>
<path d="M-18.752 709.757C-5.56562 494.817 94.785 350.715 318.615 461.746C542.444 572.776 567.763 349.136 574.841 268.185C581.919 187.235 570.944 8.06202 712.496 65.1253C854.049 122.189 849.709 72.435 870.058 38.8163C890.406 5.19763 937.211 -40.6377 963.752 -23.8283" stroke="url(#paint14_linear_2463_3007)"/>
<path d="M-16.312 729.447C-5.99042 515.054 97.9622 368.784 321.792 479.814C545.621 590.844 573.194 359.052 580.272 278.102C587.35 197.152 572.605 12.8387 714.157 69.9019C855.709 126.965 849.369 77.1274 869.717 43.5087C890.065 9.89003 937.987 -38.178 964.528 -21.3687" stroke="url(#paint15_linear_2463_3007)"/>
<path d="M-13.8718 749.142C-6.41498 535.297 101.14 386.856 324.969 497.886C548.799 608.916 578.626 368.973 585.703 288.022C592.781 207.072 574.265 17.6196 715.818 74.6829C857.37 131.746 849.029 81.8241 869.377 48.2054C889.725 14.5867 938.763 -35.7141 965.304 -18.9048" stroke="url(#paint16_linear_2463_3007)"/>
<path d="M-11.4316 768.846C-6.83954 555.548 104.317 404.938 328.147 515.969C551.976 626.999 584.057 378.903 591.135 297.953C598.212 217.003 575.926 22.4102 717.479 79.4735C859.031 136.537 848.688 86.5304 869.037 52.9117C889.385 19.293 939.539 -33.2405 966.08 -16.4312" stroke="url(#paint17_linear_2463_3007)"/>
<path d="M-8.9917 788.557C-7.26434 575.807 107.494 423.027 331.324 534.057C555.154 645.088 589.488 388.84 596.566 307.89C603.643 226.94 577.587 27.2075 719.139 84.2708C860.692 141.334 848.348 91.2435 868.696 57.6248C889.044 24.0061 940.315 -30.7602 966.856 -13.9509" stroke="url(#paint18_linear_2463_3007)"/>
<path d="M-6.54364 808.272C-7.68102 596.07 110.68 441.121 334.509 552.151C558.339 663.181 594.927 398.781 602.005 317.831C609.083 236.881 579.256 32.0092 720.808 89.0725C862.36 146.136 848.015 95.9609 868.363 62.3422C888.712 28.7235 941.099 -28.2756 967.64 -11.4663" stroke="url(#paint19_linear_2463_3007)"/>
<path d="M-4.01635 827.995C-8.01848 616.34 113.944 459.222 337.774 570.252C561.603 681.282 600.446 408.73 607.523 327.78C614.601 246.83 581.003 36.8185 722.556 93.8818C864.108 150.945 847.762 100.686 868.11 67.0672C888.458 33.4486 941.962 -25.7833 968.503 -8.97397" stroke="url(#paint20_linear_2463_3007)"/>
<path d="M-1.40399 847.723C-8.27086 636.616 117.294 477.328 341.123 588.358C564.953 699.388 606.049 418.684 613.127 337.734C620.205 256.784 582.836 41.6329 724.389 98.6962C865.941 155.759 847.594 105.416 867.942 71.7974C888.29 38.1787 942.91 -23.2859 969.451 -6.47655" stroke="url(#paint21_linear_2463_3007)"/>
<defs>
<linearGradient id="paint0_linear_2463_3007" x1="451.595" y1="-61" x2="451.595" y2="455.182" gradientUnits="userSpaceOnUse">
<stop stop-color="#1D6782" stop-opacity="0"/>
<stop offset="1" stop-color="#1D6782" stop-opacity="0.47"/>
</linearGradient>
<linearGradient id="paint1_linear_2463_3007" x1="485.621" y1="-6.75" x2="485.621" y2="867.454" gradientUnits="userSpaceOnUse">
<stop stop-color="#1D6782" stop-opacity="0"/>
<stop offset="1" stop-color="#1D6782" stop-opacity="0.47"/>
</linearGradient>
<linearGradient id="paint2_linear_2463_3007" x1="453.204" y1="-58.418" x2="453.204" y2="474.619" gradientUnits="userSpaceOnUse">
<stop stop-color="#1D6782" stop-opacity="0"/>
<stop offset="1" stop-color="#1D6782" stop-opacity="0.47"/>
</linearGradient>
<linearGradient id="paint3_linear_2463_3007" x1="454.811" y1="-55.834" x2="454.811" y2="494.092" gradientUnits="userSpaceOnUse">
<stop stop-color="#1D6782" stop-opacity="0"/>
<stop offset="1" stop-color="#1D6782" stop-opacity="0.47"/>
</linearGradient>
<linearGradient id="paint4_linear_2463_3007" x1="456.419" y1="-53.25" x2="456.419" y2="513.598" gradientUnits="userSpaceOnUse">
<stop stop-color="#1D6782" stop-opacity="0"/>
<stop offset="1" stop-color="#1D6782" stop-opacity="0.47"/>
</linearGradient>
<linearGradient id="paint5_linear_2463_3007" x1="458.028" y1="-50.666" x2="458.028" y2="533.13" gradientUnits="userSpaceOnUse">
<stop stop-color="#1D6782" stop-opacity="0"/>
<stop offset="1" stop-color="#1D6782" stop-opacity="0.47"/>
</linearGradient>
<linearGradient id="paint6_linear_2463_3007" x1="459.636" y1="-48.084" x2="459.636" y2="552.686" gradientUnits="userSpaceOnUse">
<stop stop-color="#1D6782" stop-opacity="0"/>
<stop offset="1" stop-color="#1D6782" stop-opacity="0.47"/>
</linearGradient>
<linearGradient id="paint7_linear_2463_3007" x1="461.244" y1="-45.5" x2="461.244" y2="572.265" gradientUnits="userSpaceOnUse">
<stop stop-color="#1D6782" stop-opacity="0"/>
<stop offset="1" stop-color="#1D6782" stop-opacity="0.47"/>
</linearGradient>
<linearGradient id="paint8_linear_2463_3007" x1="462.852" y1="-42.916" x2="462.852" y2="591.864" gradientUnits="userSpaceOnUse">
<stop stop-color="#1D6782" stop-opacity="0"/>
<stop offset="1" stop-color="#1D6782" stop-opacity="0.47"/>
</linearGradient>
<linearGradient id="paint9_linear_2463_3007" x1="464.46" y1="-40.334" x2="464.46" y2="611.478" gradientUnits="userSpaceOnUse">
<stop stop-color="#1D6782" stop-opacity="0"/>
<stop offset="1" stop-color="#1D6782" stop-opacity="0.47"/>
</linearGradient>
<linearGradient id="paint10_linear_2463_3007" x1="466.068" y1="-37.748" x2="466.068" y2="631.111" gradientUnits="userSpaceOnUse">
<stop stop-color="#1D6782" stop-opacity="0"/>
<stop offset="1" stop-color="#1D6782" stop-opacity="0.47"/>
</linearGradient>
<linearGradient id="paint11_linear_2463_3007" x1="467.676" y1="-35.1661" x2="467.676" y2="650.755" gradientUnits="userSpaceOnUse">
<stop stop-color="#1D6782" stop-opacity="0"/>
<stop offset="1" stop-color="#1D6782" stop-opacity="0.47"/>
</linearGradient>
<linearGradient id="paint12_linear_2463_3007" x1="469.284" y1="-32.584" x2="469.284" y2="670.411" gradientUnits="userSpaceOnUse">
<stop stop-color="#1D6782" stop-opacity="0"/>
<stop offset="1" stop-color="#1D6782" stop-opacity="0.47"/>
</linearGradient>
<linearGradient id="paint13_linear_2463_3007" x1="470.892" y1="-30" x2="470.892" y2="690.08" gradientUnits="userSpaceOnUse">
<stop stop-color="#1D6782" stop-opacity="0"/>
<stop offset="1" stop-color="#1D6782" stop-opacity="0.47"/>
</linearGradient>
<linearGradient id="paint14_linear_2463_3007" x1="472.5" y1="-27.418" x2="472.5" y2="709.757" gradientUnits="userSpaceOnUse">
<stop stop-color="#1D6782" stop-opacity="0"/>
<stop offset="1" stop-color="#1D6782" stop-opacity="0.47"/>
</linearGradient>
<linearGradient id="paint15_linear_2463_3007" x1="474.108" y1="-24.832" x2="474.108" y2="729.447" gradientUnits="userSpaceOnUse">
<stop stop-color="#1D6782" stop-opacity="0"/>
<stop offset="1" stop-color="#1D6782" stop-opacity="0.47"/>
</linearGradient>
<linearGradient id="paint16_linear_2463_3007" x1="475.716" y1="-22.2501" x2="475.716" y2="749.142" gradientUnits="userSpaceOnUse">
<stop stop-color="#1D6782" stop-opacity="0"/>
<stop offset="1" stop-color="#1D6782" stop-opacity="0.47"/>
</linearGradient>
<linearGradient id="paint17_linear_2463_3007" x1="477.324" y1="-19.666" x2="477.324" y2="768.846" gradientUnits="userSpaceOnUse">
<stop stop-color="#1D6782" stop-opacity="0"/>
<stop offset="1" stop-color="#1D6782" stop-opacity="0.47"/>
</linearGradient>
<linearGradient id="paint18_linear_2463_3007" x1="478.932" y1="-17.082" x2="478.932" y2="788.557" gradientUnits="userSpaceOnUse">
<stop stop-color="#1D6782" stop-opacity="0"/>
<stop offset="1" stop-color="#1D6782" stop-opacity="0.47"/>
</linearGradient>
<linearGradient id="paint19_linear_2463_3007" x1="480.544" y1="-14.5" x2="480.544" y2="808.272" gradientUnits="userSpaceOnUse">
<stop stop-color="#1D6782" stop-opacity="0"/>
<stop offset="1" stop-color="#1D6782" stop-opacity="0.47"/>
</linearGradient>
<linearGradient id="paint20_linear_2463_3007" x1="482.196" y1="-11.916" x2="482.196" y2="827.995" gradientUnits="userSpaceOnUse">
<stop stop-color="#1D6782" stop-opacity="0"/>
<stop offset="1" stop-color="#1D6782" stop-opacity="0.47"/>
</linearGradient>
<linearGradient id="paint21_linear_2463_3007" x1="483.89" y1="-9.33215" x2="483.89" y2="847.723" gradientUnits="userSpaceOnUse">
<stop stop-color="#1D6782" stop-opacity="0"/>
<stop offset="1" stop-color="#1D6782" stop-opacity="0.47"/>
</linearGradient>
</defs>
</svg>
