<?xml version="1.0" encoding="UTF-8"?><svg id="Camada_2" xmlns="http://www.w3.org/2000/svg" viewBox="0 0 1443.71 250.01"><defs><style>.cls-1{fill:#3d3e3e;}.cls-2{fill:#188096;}</style></defs><g id="Camada_2-2"><g><path class="cls-1" d="M1060.83,5.39l-166.33,2.9c-1.1,.02-1.98,.93-1.96,2.03l.25,14.28c.02,1.1,.93,1.98,2.03,1.96l71.19-1.24c1.1-.02,2.02,.86,2.03,1.96l3.85,220.75c.02,1.1,.93,1.98,2.03,1.96l15.61-.27c1.1-.02,1.98-.93,1.96-2.03l-3.85-220.75c-.02-1.1,.86-2.02,1.96-2.03l71.53-1.25c1.1-.02,1.98-.93,1.96-2.03l-.25-14.28c-.02-1.1-.93-1.98-2.03-1.96Z"/><path class="cls-1" d="M1229.85,20.08c-13.62-11.46-31.58-17.09-53.49-16.7l-81.34,1.42c-1.1,.02-1.98,.93-1.96,2.03l4.17,239.03c.02,1.1,.93,1.98,2.03,1.96l15.61-.27c1.1-.02,1.98-.93,1.96-2.03l-1.6-91.94c-.02-1.1,.86-2.02,1.96-2.03l61.73-1.08c22.1-.39,39.95-6.63,53.05-18.57,13.19-12.02,19.69-28.55,19.34-49.12l-.25-14.61c-.36-20.36-7.49-36.54-21.21-48.09Zm-115.01,111.05l-1.86-106.36c-.02-1.1,.86-2.02,1.96-2.03l59.08-1.03c17.67-.31,31.79,3.66,41.94,11.81,10.01,8.03,15.22,19.81,15.48,35l.25,14.61c.27,15.42-4.47,27.45-14.09,35.77-9.75,8.43-23.77,12.87-41.67,13.18l-59.07,1.03c-1.1,.02-2.02-.86-2.03-1.96Z"/><path class="cls-1" d="M1443.44,64.81c-.36-20.36-7.49-36.54-21.21-48.09-13.62-11.46-31.59-17.09-53.49-16.7l-81.34,1.42c-1.1,.02-1.98,.93-1.96,2.03l4.17,239.03c.02,1.1,.93,1.98,2.03,1.96l15.61-.27c1.1-.02,1.98-.93,1.96-2.03l-1.6-91.94c-.02-1.1,.86-2.02,1.96-2.03l61.73-1.08c22.1-.39,39.95-6.63,53.05-18.57,13.19-12.02,19.69-28.55,19.34-49.12l-.25-14.61Zm-136.22,62.96l-1.86-106.36c-.02-1.1,.86-2.02,1.96-2.03l59.08-1.03c17.7-.3,31.79,3.66,41.94,11.81,10.01,8.03,15.22,19.81,15.48,35l.25,14.61c.27,15.42-4.47,27.45-14.09,35.77-9.75,8.43-23.77,12.87-41.67,13.18l-59.07,1.03c-1.1,.02-2.02-.86-2.03-1.96Z"/></g><g id="Mock"><path class="cls-1" d="M178.97,241.84V103.43c0-2.48-3.22-3.45-4.59-1.38l-59.39,90.14c-.22,.34-.6,.55-1.01,.55h0c-.41,0-.79-.21-1.01-.55L54.23,103.03c-1.36-2.07-4.59-1.11-4.59,1.38V241.84c0,1.38-1.12,2.5-2.5,2.5H2.5c-1.38,0-2.5-1.12-2.5-2.5V18.23c0-1.38,1.12-2.5,2.5-2.5H52.82c.86,0,1.67,.45,2.12,1.18l57.24,92.08c.98,1.57,3.27,1.57,4.25,0L173.67,16.91c.46-.73,1.26-1.18,2.12-1.18h50.32c1.38,0,2.5,1.12,2.5,2.5V241.84c0,1.38-1.12,2.5-2.5,2.5h-44.64c-1.38,0-2.5-1.12-2.5-2.5Z"/><path class="cls-1" d="M620.19,239.28c-10.89,5.99-25.04,8.98-42.46,8.98-13.06,0-25.2-2.4-36.41-7.18-11.22-4.79-20.85-11.27-28.9-19.43-8.06-8.16-14.37-17.74-18.94-28.74-4.57-10.99-6.86-22.7-6.86-35.11v-.65c0-12.41,2.29-24.17,6.86-35.27,4.57-11.1,10.88-20.79,18.94-29.07,8.05-8.27,17.69-14.8,28.9-19.6,11.21-4.79,23.57-7.19,37.07-7.19,16.54,0,30.26,2.61,41.15,7.84,10.2,4.9,19.25,11.51,27.16,19.85,.9,.95,.89,2.45,0,3.41l-27.01,29.05c-.95,1.02-2.57,1.08-3.57,.09-5.1-5.03-10.32-9.11-15.68-12.23-5.99-3.48-13.45-5.23-22.37-5.23-6.32,0-12.03,1.26-17.15,3.76-5.12,2.51-9.58,5.94-13.39,10.29-3.81,4.36-6.75,9.42-8.82,15.19-2.07,5.77-3.1,11.92-3.1,18.45v.65c0,6.75,1.03,13.06,3.1,18.94,2.07,5.88,5.06,11,8.98,15.35,3.92,4.36,8.6,7.79,14.04,10.29,5.44,2.51,11.54,3.76,18.29,3.76,8.27,0,15.51-1.68,21.72-5.06,5.6-3.05,11.16-7.02,16.68-11.94,1-.89,2.52-.86,3.46,.09l25.7,25.99c.94,.95,.98,2.49,.06,3.46-8.1,8.57-17.24,15.66-27.44,21.27Z"/><path class="cls-1" d="M793.52,243.19l-43.26-67.67c-.88-1.37-2.8-1.55-3.92-.37l-14.43,15.24c-.44,.46-.68,1.08-.68,1.72v49.74c0,1.38-1.12,2.5-2.5,2.5h-44.64c-1.38,0-2.5-1.12-2.5-2.5V8.43c0-1.38,1.12-2.5,2.5-2.5h44.64c1.38,0,2.5,1.12,2.5,2.5V126.53c0,2.28,2.81,3.37,4.35,1.69l53.04-58.11c.47-.52,1.14-.81,1.85-.81h52.44c2.21,0,3.33,2.65,1.8,4.24l-61.14,63.24c-.81,.84-.93,2.12-.3,3.1l65.32,100.61c1.08,1.66-.11,3.86-2.1,3.86h-50.85c-.85,0-1.65-.43-2.11-1.15Z"/><g><path class="cls-1" d="M457.94,157.21c0,44.73-28.83,80.78-71.94,89.44-27.47,5.52-52.82,0-74.93-18.05-2.65-2.17-3.39-3.31-.47-6.06,8.08-7.61,15.83-15.57,23.6-23.51,1.69-1.73,2.67-2.08,4.85-.42,14.49,11.05,30.57,12.82,47.1,6,16.35-6.75,25.16-19.91,27.79-37.26,1.52-10.03,.87-19.93-2.91-29.38-6.4-16-18.15-25.7-35.25-28.48-2.54-.41-2.98-1.27-2.96-3.52,.09-11.48,.15-22.97-.03-34.44-.05-2.91,1.01-3.25,3.47-2.99,40.71,4.26,72.45,33.19,80.39,73.35,1.06,5.34,1.47,10.74,1.29,15.34Z"/><path class="cls-2" d="M362.82,75.36c0,10.21-.05,20.43,.04,30.64,.02,2.28-.51,3.18-3.02,3.55-8.28,1.19-15.7,4.53-21.93,10.21-1.62,1.48-2.54,1.14-3.96-.28-12.88-12.98-25.81-25.9-38.79-38.78-1.41-1.4-1.72-2.25-.32-3.96,16.91-20.53,38.58-32.25,64.94-35.49,2.79-.34,3.08,.81,3.06,3.1-.09,10.34-.04,20.68-.04,31.02Z"/><path class="cls-2" d="M286.47,86.01c13.78,13.81,27.58,27.65,41.41,41.46,1.16,1.16,1.43,2.04,.48,3.55-4,6.42-6.07,13.53-6.75,21.02-.19,2.07-.99,2.42-2.8,2.41-15.89-.05-31.79-.04-47.68-.02-1.49,0-2.58-.04-2.76-2.08-2.18-24.04,3.75-45.92,17.32-65.8,.13-.19,.39-.28,.78-.53Z"/><path class="cls-2" d="M295.01,164.46c7.82,0,15.64,.06,23.45-.04,2.08-.03,3.16,.33,3.43,2.69,.85,7.34,3.1,14.25,7.18,20.48,.8,1.23,.54,1.94-.41,2.88-8.95,8.89-17.88,17.79-26.74,26.75-1.13,1.14-1.78,.78-2.76-.06-15.56-13.43-26.01-29.9-30.14-50.21-.45-2.21,.24-2.53,2.15-2.51,7.94,.07,15.89,.03,23.83,.03Z"/></g></g></g></svg>